HIERARCHY
ROOT Hips
{
	OFFSET -14.64140 90.27770 -84.91600
	CHANNELS 6 Xposition Yposition Zposition Zrotation Xrotation Yrotation
	JOINT Spine
	{
		OFFSET 0.00000 13.20850 -1.60436
		CHANNELS 3 Zrotation Xrotation Yrotation
		JOINT Spine1
		{
			OFFSET 0.00000 8.61716 0.00000
			CHANNELS 3 Zrotation Xrotation Yrotation
			JOINT Spine2
			{
				OFFSET 0.00000 8.61717 0.00000
				CHANNELS 3 Zrotation Xrotation Yrotation
				JOINT Spine3
				{
					OFFSET 0.00000 8.61717 0.00000
					CHANNELS 3 Zrotation Xrotation Yrotation
					JOINT Neck
					{
						OFFSET 0.00000 11.07920 1.10792
						CHANNELS 3 Zrotation Xrotation Yrotation
						JOINT Neck1
						{
							OFFSET 0.00000 7.08032 0.00000
							CHANNELS 3 Zrotation Xrotation Yrotation
							JOINT Head
							{
								OFFSET 0.00000 7.08031 0.00000
								CHANNELS 3 Zrotation Xrotation Yrotation
								End site
								{
									OFFSET 0.00000 0.00000 0.00000
								}
							}
						}
					}
					JOINT RightShoulder
					{
						OFFSET -0.01000 7.91373 5.19711
						CHANNELS 3 Zrotation Xrotation Yrotation
						JOINT RightArm
						{
							OFFSET -18.41580 0.00000 0.00000
							CHANNELS 3 Zrotation Xrotation Yrotation
							JOINT RightForeArm
							{
								OFFSET -29.11090 0.00000 0.00000
								CHANNELS 3 Zrotation Xrotation Yrotation
								JOINT RightHand
								{
									OFFSET -24.65040 0.00000 0.00000
									CHANNELS 3 Zrotation Xrotation Yrotation
									JOINT RightHandThumb1
									{
										OFFSET -5.35114 -0.85590 3.97906
										CHANNELS 3 Zrotation Xrotation Yrotation
										JOINT RightHandThumb2
										{
											OFFSET -4.52789 0.00000 0.00000
											CHANNELS 3 Zrotation Xrotation Yrotation
											JOINT RightHandThumb3
											{
												OFFSET -2.46976 0.00000 0.00000
												CHANNELS 3 Zrotation Xrotation Yrotation
												End site
												{
													OFFSET 0.00000 0.00000 0.00000
												}
											}
										}
									}
									JOINT RightHandIndex1
									{
										OFFSET -14.26970 0.00000 2.88139
										CHANNELS 3 Zrotation Xrotation Yrotation
										JOINT RightHandIndex2
										{
											OFFSET -5.48836 0.00000 0.00000
											CHANNELS 3 Zrotation Xrotation Yrotation
											JOINT RightHandIndex3
											{
												OFFSET -3.01859 0.00000 0.00000
												CHANNELS 3 Zrotation Xrotation Yrotation
												End site
												{
													OFFSET 0.00000 0.00000 0.00000
												}
											}
										}
									}
									JOINT RightHandMiddle1
									{
										OFFSET -14.26970 0.00000 -0.09147
										CHANNELS 3 Zrotation Xrotation Yrotation
										JOINT RightHandMiddle2
										{
											OFFSET -6.17441 0.00000 0.00000
											CHANNELS 3 Zrotation Xrotation Yrotation
											JOINT RightHandMiddle3
											{
												OFFSET -3.56743 0.00000 0.00000
												CHANNELS 3 Zrotation Xrotation Yrotation
												End site
												{
													OFFSET 0.00000 0.00000 0.00000
												}
											}
										}
									}
									JOINT RightHandRing1
									{
										OFFSET -12.69180 0.00000 -3.06433
										CHANNELS 3 Zrotation Xrotation Yrotation
										JOINT RightHandRing2
										{
											OFFSET -5.62556 0.00000 0.00000
											CHANNELS 3 Zrotation Xrotation Yrotation
											JOINT RightHandRing3
											{
												OFFSET -3.56744 0.00000 0.00000
												CHANNELS 3 Zrotation Xrotation Yrotation
												End site
												{
													OFFSET 0.00000 0.00000 0.00000
												}
											}
										}
									}
									JOINT RightHandPinky1
									{
										OFFSET -11.11390 0.00000 -6.03719
										CHANNELS 3 Zrotation Xrotation Yrotation
										JOINT RightHandPinky2
										{
											OFFSET -4.52789 0.00000 0.00000
											CHANNELS 3 Zrotation Xrotation Yrotation
											JOINT RightHandPinky3
											{
												OFFSET -2.46976 0.00000 0.00000
												CHANNELS 3 Zrotation Xrotation Yrotation
												End site
												{
													OFFSET 0.00000 0.00000 0.00000
												}
											}
										}
									}
								}
							}
						}
					}
					JOINT LeftShoulder
					{
						OFFSET 0.01000 7.91373 5.19711
						CHANNELS 3 Zrotation Xrotation Yrotation
						JOINT LeftArm
						{
							OFFSET 18.41580 0.00000 0.00000
							CHANNELS 3 Zrotation Xrotation Yrotation
							JOINT LeftForeArm
							{
								OFFSET 29.11090 0.00000 0.00000
								CHANNELS 3 Zrotation Xrotation Yrotation
								JOINT LeftHand
								{
									OFFSET 24.65040 0.00000 0.00000
									CHANNELS 3 Zrotation Xrotation Yrotation
									JOINT LeftHandThumb1
									{
										OFFSET 5.35114 -0.85590 3.97906
										CHANNELS 3 Zrotation Xrotation Yrotation
										JOINT LeftHandThumb2
										{
											OFFSET 4.52789 0.00000 0.00000
											CHANNELS 3 Zrotation Xrotation Yrotation
											JOINT LeftHandThumb3
											{
												OFFSET 2.46977 0.00000 0.00000
												CHANNELS 3 Zrotation Xrotation Yrotation
												End site
												{
													OFFSET 0.00000 0.00000 0.00000
												}
											}
										}
									}
									JOINT LeftHandIndex1
									{
										OFFSET 14.26970 0.00000 2.88139
										CHANNELS 3 Zrotation Xrotation Yrotation
										JOINT LeftHandIndex2
										{
											OFFSET 5.48836 0.00000 0.00000
											CHANNELS 3 Zrotation Xrotation Yrotation
											JOINT LeftHandIndex3
											{
												OFFSET 3.01859 0.00000 0.00000
												CHANNELS 3 Zrotation Xrotation Yrotation
												End site
												{
													OFFSET 0.00000 0.00000 0.00000
												}
											}
										}
									}
									JOINT LeftHandMiddle1
									{
										OFFSET 14.26970 0.00000 -0.09147
										CHANNELS 3 Zrotation Xrotation Yrotation
										JOINT LeftHandMiddle2
										{
											OFFSET 6.17440 0.00000 0.00000
											CHANNELS 3 Zrotation Xrotation Yrotation
											JOINT LeftHandMiddle3
											{
												OFFSET 3.56744 0.00000 0.00000
												CHANNELS 3 Zrotation Xrotation Yrotation
												End site
												{
													OFFSET 0.00000 0.00000 0.00000
												}
											}
										}
									}
									JOINT LeftHandRing1
									{
										OFFSET 12.69180 0.00000 -3.06433
										CHANNELS 3 Zrotation Xrotation Yrotation
										JOINT LeftHandRing2
										{
											OFFSET 5.62556 0.00000 0.00000
											CHANNELS 3 Zrotation Xrotation Yrotation
											JOINT LeftHandRing3
											{
												OFFSET 3.56744 0.00000 0.00000
												CHANNELS 3 Zrotation Xrotation Yrotation
												End site
												{
													OFFSET 0.00000 0.00000 0.00000
												}
											}
										}
									}
									JOINT LeftHandPinky1
									{
										OFFSET 11.11390 0.00000 -6.03719
										CHANNELS 3 Zrotation Xrotation Yrotation
										JOINT LeftHandPinky2
										{
											OFFSET 4.52789 0.00000 0.00000
											CHANNELS 3 Zrotation Xrotation Yrotation
											JOINT LeftHandPinky3
											{
												OFFSET 2.46976 0.00000 0.00000
												CHANNELS 3 Zrotation Xrotation Yrotation
												End site
												{
													OFFSET 0.00000 0.00000 0.00000
												}
											}
										}
									}
								}
							}
						}
					}
					JOINT pCube4
					{
						OFFSET 0.00000 10.91090 1.10792
						CHANNELS 3 Zrotation Xrotation Yrotation
						End site
						{
							OFFSET 0.00000 0.00000 0.00000
						}
					}
				}
			}
		}
	}
	JOINT RightUpLeg
	{
		OFFSET -9.98441 0.00000 0.00000
		CHANNELS 3 Zrotation Xrotation Yrotation
		JOINT RightLeg
		{
			OFFSET 0.00000 -42.11790 0.00000
			CHANNELS 3 Zrotation Xrotation Yrotation
			JOINT RightFoot
			{
				OFFSET 0.00000 -45.00020 -0.00001
				CHANNELS 3 Zrotation Xrotation Yrotation
				JOINT RightForeFoot
				{
					OFFSET 0.00000 -3.74820 0.00000
					CHANNELS 3 Zrotation Xrotation Yrotation
					JOINT RightToeBase
					{
						OFFSET 0.00000 0.06325 14.43120
						CHANNELS 3 Zrotation Xrotation Yrotation
						End site
						{
							OFFSET 0.00000 0.00000 0.00000
						}
					}
				}
			}
		}
	}
	JOINT LeftUpLeg
	{
		OFFSET 9.98441 0.00000 0.00000
		CHANNELS 3 Zrotation Xrotation Yrotation
		JOINT LeftLeg
		{
			OFFSET 0.00000 -42.11800 0.00000
			CHANNELS 3 Zrotation Xrotation Yrotation
			JOINT LeftFoot
			{
				OFFSET 0.00000 -45.00070 0.00000
				CHANNELS 3 Zrotation Xrotation Yrotation
				JOINT LeftForeFoot
				{
					OFFSET 0.00000 -3.74824 0.00000
					CHANNELS 3 Zrotation Xrotation Yrotation
					JOINT LeftToeBase
					{
						OFFSET 0.00000 0.06325 14.43110
						CHANNELS 3 Zrotation Xrotation Yrotation
						End site
						{
							OFFSET 0.00000 0.00000 0.00000
						}
					}
				}
			}
		}
	}
}
MOTION
Frames: 4
Frame Time: 0.050000
-0.04052890181310133 0.04027692882372375 -0.015057584605044683 -0.015823528759271146 0.03937131926499222 0.0016629060922006935 4.772968942754809 1.9973509188001939 -2.295906406628791 -0.670273015144978 3.4533295301323603 0.4134473418829801 -0.9334290114054751 -1.566828837225616 2.1512017803449717 -1.05565131228385 -0.7805795090718889 -0.12225623090630505 1.2200731687780804 13.883184740536146 -2.8000011601926187 0.5486039280068212 -0.4807124588044464 -6.672540632046044 1.6734947199673949 -17.343551608937545 -0.6368024455000953 -15.431088339614695 4.692628444713087 -18.792783621134834 80.45442537168569 -12.318324653670171 38.979608689952165 3.319248964885754 4.953499516093206 103.58803471037777 19.985247071863554 -0.9238095338576355 -5.690984545296459 4.500970033258042 -0.16638684881576818 -1.555203402591195 -0.031584800860732926 -0.0008763365320814799 -56.27517748893834 0.02887833024009146 0.039297112874017145 -56.27897309965201 -38.75879041669473 -0.006303890451194017 -0.03821252519243073 0.030826984329079325 -0.04767106088140313 0.01728407817456318 -0.033780636051779264 -0.048447530927662956 0.047768556340543666 -36.68656886745845 -0.022520282066092995 -0.04976122875564748 -0.045075336648047276 -0.004074099570893262 -0.0006130382090932315 -0.023880019414140988 -0.0020020044312396438 -0.04251439878348686 -19.8037929826741 -0.045682777684470766 -0.005128004280173684 0.00886847268755397 0.029648841171448132 -0.044075998662367395 0.03508901758815252 -0.03619165009212969 -0.03896013604799008 24.065545800653243 -0.009312278721721093 -0.03770761076664608 28.844433285602236 -0.03153410356665235 0.02100294356153929 28.830399513416076 0.0019407655940011038 0.014811422537575763 10.702965797184225 2.4497676759748788 14.756046176953191 -73.07305594018649 20.50370800074103 -11.434063880786065 -28.574232772385738 10.350459836396345 -86.34498240472666 -29.91310400001172 -11.532796700338553 9.205867005830811 -0.44124381173707966 0.06378395868835363 -8.16481181140046 0.009152818125228042 0.008909154248685443 44.57230802865848 -0.006446753872510052 0.03191592944511286 44.56922520178173 12.435729026021042 -0.03205487948649136 0.015416357250901198 -0.03938244636050687 -0.012656686185967535 0.03195449881656718 -0.015259932388544131 -0.01030772286723799 -0.006892745119328127 11.075362219866944 -0.002930290386683338 -0.033128631716004414 -0.03892505107620629 0.0009128877160808296 0.008585335076125028 0.005786068090582452 0.012002675959358649 -0.004842036597223498 4.768463288518101 -0.03930542084694752 -0.005475367674423564 0.04780727230272333 0.036591225354845984 -0.04292247070357448 -0.008784444199468252 -0.009269374224396165 0.02048266482748359 -5.597930729485494 0.03511554123035846 0.023488786487120127 -6.722118067205076 0.030726237873721373 0.0034947563549530907 -6.748452995377669 0.018494737594802454 -0.022439188259409232 0.021668442566191062 -0.015451458574924184 0.025096678163542264 8.060836925178839 3.4708207608366455 -19.21644315633085 0.005866186038964941 10.40967577582919 -0.017904876787617704 -5.601216070026241 -15.67940575083405 3.1877379071282443 0.02372163660066146 0.014981826307607927 0.030273898955002192 -0.02559468184903434 4.671999609975739 0.007388515850746716 12.431015048652815 -8.210434603388043 6.876723779984531 0.007079272186084662 46.34887754786474 0.02995907505313402 -4.332960652609412 -14.725662909088518 -3.8624378738666247 -0.009905385320002912 0.029980706404366776 -0.021285351518595088 0.020144839140430807 -10.79069266409103 -0.008759392376272516 
-0.029128340397583385 0.015035857245936113 0.0026776950375547257 0.00949506081839146 0.008492091491921497 -0.0002273299974759823 4.592815384738734 2.1151780694511304 -2.2207835529177657 -0.6723473837009801 3.4270768522859583 0.41231546128331253 -0.8426095293103179 -1.5614356686192574 2.0757711162702477 -0.9138575855416512 -0.7923400253954802 -0.13157153552289277 1.1529406791994192 13.563111610437875 -2.7902195674036476 0.4500224509950891 -0.6216321343290391 -6.7949968209087945 1.5257558969911549 -17.382668181406324 -0.6652556334879295 -14.735682114297987 4.568280220049766 -18.43194442096774 77.64286235020707 -10.856628994415564 37.46318243504734 4.354232429137234 4.552923258820674 102.55781264877835 20.85736924228564 -0.8549028840732409 -6.030876342991584 4.494030862059623 -0.1144514823899931 -1.6003475506726814 -0.003018893373995875 -0.002890275170163554 -56.27237732906498 -0.039404270045953836 0.046499552473669686 -56.254649480312814 -38.79775596043163 -0.0035180005095175886 -0.019281932690237168 -0.032192850060452985 -0.01065543385916646 0.024361404985604768 0.02609154440638803 0.0063867859178227656 0.030874472128901265 -36.64644341025557 0.007701231523129269 0.023765570847618656 0.014580443735919418 -0.03136168995310984 -0.0215644147862321 -0.008664691571486268 -0.002597258554471087 -0.04849048896263682 -19.79718219939507 -0.04231154350779809 0.0027344955628233808 -0.010926001202792248 -0.04716869482673219 0.02261683935758918 -0.03543356032101656 -0.01733897744788948 -0.04824543070907471 24.050704399732417 -0.04010099418473756 -0.03973298927847696 28.836931430930782 0.008496909427633112 -0.024367056630699907 28.841743767362356 -0.01006706203674443 0.0019496723183989825 10.306972097541513 2.420668219488861 14.685702793546158 -71.94744199573404 20.77968795541428 -11.723651047374313 -26.940993485288605 8.884445973067686 -87.7425377976959 -29.33250377385504 -11.074352939745598 8.608502059954137 -0.5119450434735037 0.041169512579503804 -8.132179218892745 -0.017893270185350578 0.03317698086070068 44.53750685212936 0.005250546585918761 -0.006811694455235082 44.56466789605513 12.41853438670662 -0.0167951236147243 -0.03246232631405838 -0.012127154987332888 -0.021484094245801846 0.02010925254485503 0.009906358873117754 -0.04594261797601432 -0.01951509690934126 11.12480037747456 0.007578032645690377 0.013053431158439727 0.048668469485153534 -3.53319094196263e-05 -0.00453425021380701 -0.02031501853717721 -0.025898978252790607 0.03721885457077268 4.772309976606888 0.015004360929498221 -0.010658812168963095 -0.04432915029581607 0.04492924143669897 0.018323598966817452 0.03083162693189675 -0.024201651450697286 -0.020389916771200084 -5.622983225895941 0.00894371684168916 0.004798844786668845 -6.753561263559381 0.034619729581815584 0.019547361451747534 -6.739351860140092 0.02504568352240673 -0.01824740038248875 -0.04055909045407057 -0.04279710646400701 0.04255758752131174 8.047525018080684 3.44994948005493 -19.235939339062508 0.0002872654250512329 10.424590692077196 0.011964055532584544 -5.62825377585398 -15.654654231062592 3.177808277137342 -0.018756497536685665 -0.02062040016203235 -0.006699730525972522 0.04616928867556968 4.726410713552038 -0.013829400626509109 12.444079638430662 -8.239884905248372 6.839413655228923 0.04628992167462003 46.381608967426075 -0.008799087132094879 -4.332232632277234 -14.75649453464459 -3.8786975549242686 -0.031968424243112706 -0.03063140831041983 0.032638437298575684 0.01965386432798715 -10.745728878582348 -0.005690828143891371 
-0.024066723856146513 0.02185729690943283 -0.026502431109651683 0.015637165881261596 -0.04655991067332967 -0.011976051228522187 4.40132562951344 2.3225728289405208 -2.14861134897575 -0.6886975077510032 3.426062158420739 0.399591079932497 -0.8273469507196692 -1.4987083735946338 1.90704780619427 -0.8721799530131374 -0.7206731747092107 -0.18405678652133553 1.0914123029560872 13.249326796510726 -2.7237787490497625 0.45125417059822925 -0.7054252802455299 -6.972483462174758 1.4908938816739592 -17.494942459408904 -0.655246523370466 -13.776295252289811 4.332532729854153 -18.030516094897713 74.74552320210147 -8.380935382217494 35.161652496755536 4.807753407954827 3.737546941190751 101.87317617708422 21.460843010376834 -0.7638571955181616 -6.205694058410072 4.488052056170678 -0.1191374786261519 -1.5859873578349677 -0.03664481040320004 0.028083172407038948 -56.19054913323209 0.030978609168827546 -0.004435638414646162 -56.199004866363126 -38.74300890992179 0.04224782101877002 -0.02448895652704141 0.03277746241754704 0.013857315817456863 0.007685865201192041 0.02584635924587381 0.027653132417348927 -0.016767388075694455 -36.67953691005477 -0.001404942049343748 -0.04070009974770722 0.029668090015145882 0.04391433691979042 0.047238516214172924 -0.01914909073321795 0.03385864936107191 -0.034423355722409045 -19.77522603392985 0.004921479772679933 -0.001305149350346468 -0.025460241309972112 0.004483120600883921 0.018884065924621447 0.01196793831914353 -0.030185418217215352 -0.013092750240973719 24.031412773359055 -0.01960951917293629 -0.03154013396418094 28.878763185082207 -0.028204397894579944 -0.01739200258787165 28.840505133346657 -0.02590738167259982 -0.04528344224193041 9.722656286082936 2.349896144679744 14.512712688696444 -71.08485776558297 20.774909472289632 -11.65084077232953 -25.593305874156055 7.914608219738899 -88.23081623199445 -28.4621297501055 -10.391364627956667 7.932275461329201 -0.4426321370532549 0.03764573395397947 -8.117614967334282 -0.006251080262617226 0.029765480318303377 44.57700352494085 0.037270035229884604 -0.007252064650401704 44.57137676311175 12.41887719622553 0.023023143509968536 -0.01977059761120187 -0.04246413411519845 -0.005932323078390781 -0.018264234043493897 -0.030290342698069465 0.04090807467065987 -0.04565657207962266 11.139240768813425 -0.04148505678107184 -0.021353402244938095 -0.04062725351479254 0.04472786258271731 -0.030644647394983536 0.04818624283689166 -0.006086414402126852 0.013382080643339647 4.767667758608439 0.007034191323046399 0.04103831740336049 -0.011783660386400658 0.024779189085722957 -0.010094725192055036 -0.02064373627781334 -0.03325149969700987 0.018284320275163007 -5.613242896778112 -0.02734250756202015 0.03428783275839373 -6.722759446549456 0.025784995219905283 0.0071482443958719175 -6.673712445715029 -0.03349607335441312 -0.02391239640763791 0.01013878746482101 0.01354921598462707 -0.02010173061670398 8.028755917045784 3.526827990263119 -19.255403052629138 -0.03059929247708869 10.407405146358764 -0.020851184847294656 -5.574483133697651 -15.652268253204845 3.207506465666787 -0.020303930225923948 -0.0004312419244631324 0.018851895787393828 -0.049771536130748056 4.6670335213110095 -0.008158710413427906 12.474689100090032 -8.202807005989941 6.915844742545777 0.016527637583983856 46.35716357688497 -0.009432409808124043 -4.349484933717004 -14.72070199754208 -3.8024027948267207 -0.037420265893110004 -0.0063749713336983095 0.01569531536595277 0.020717562404386245 -10.725245694597808 -0.0009425535689378011 
0.035112293909623914 0.022041259841973235 -0.04168951619963893 0.015436622223323893 -0.04763335735759287 -0.03254792748245796 4.288865609450252 2.5831595473005957 -2.01758172657783 -0.657542245954383 3.493786952692412 0.36116792657972313 -0.8695294271208566 -1.3857251293707018 1.8490931734888654 -0.8448908861052499 -0.761783448470424 -0.17281689443415246 0.9564433857138612 12.735998249427446 -2.7276099189087692 0.36105381628842914 -0.7937263564540038 -7.038223592419173 1.346759344410049 -17.530408831841687 -0.69858550510172 -12.72115108656246 4.141816169538739 -17.586033420525236 71.50287505956187 -5.420493429783087 32.005417957671035 4.2877761992039485 2.594573850561879 101.44467939006887 22.10444860551313 -0.732166861382228 -6.321169212397672 4.561466201745777 -0.14051941281084557 -1.5998602467719887 -0.012762602301572492 -0.028404209210256572 -56.193407517897526 0.04970981824358076 0.007622691164511168 -56.20728772577627 -38.750916534689416 0.011700089673359945 -0.027531555172103428 -0.005864570044043982 -0.004287694076258412 -0.03360696611649805 0.017909705042266605 0.01110127023797417 -0.006998802618412254 -36.68158418074687 0.01431706814376802 0.04453346633454355 -0.03752064500541183 0.04948689199609078 0.023318516452808916 0.0030342385132731825 0.04797700811218245 0.0007495692958520811 -19.807586544716084 0.020255604718073944 0.012691078247882124 0.044691174797508094 0.024128254013927358 -0.04740398822633413 -6.849746410091635e-05 -0.006310423279219353 0.0030430209862165403 24.08790385875785 -0.03663535866109887 -0.02431666862156515 28.855335697537512 -0.019503314547389558 0.032402751483446825 28.861727242218397 0.02222964153821171 -0.023362573413725694 9.173845811065974 2.257495916462629 14.426959035358859 -70.13614785925408 20.184389287236005 -11.465919068532992 -24.650614224362915 7.193059049689162 -88.74156219694305 -28.05269522833524 -9.879184735907861 7.358447529465229 -0.5239985848895429 0.10849648964791568 -8.094221298299779 0.025717038725264273 0.014620699442140802 44.52295551726621 -0.02447849061930086 0.03848994106444721 44.613888696153836 12.43191997650537 -0.04036685870628992 -0.03222861876336255 -0.02032609186361413 0.03079139981493666 0.023238711795343082 0.010820693740363117 -0.03732573177423417 0.017190497440747476 11.095718141359075 -0.012786053347176243 0.004713814561151881 -0.023382181904377266 -0.048851686110162086 0.004109990764139188 0.026280541072760313 0.038245243013983236 -0.008819068521193456 4.733724853974287 0.04620611012067217 -0.011651924306981169 0.001265168135961395 0.028384284586280617 0.01982255125776427 -0.04174224792963942 0.029229825968187753 -0.027682932779562634 -5.552671192657742 0.027684474578594447 -0.020597753075246143 -6.676789064570508 0.01739681816134384 0.006658234923582331 -6.721512191525535 -0.013831776825970242 -0.03808738839844596 -0.02286902788617924 0.04506600782913435 -0.0001712811566008465 8.042208225692892 3.5297172025468577 -19.24734261377297 0.011366370712171546 10.442881222203768 0.041134176628049676 -5.604075856790276 -15.673426671256388 3.226498443753005 -0.025611399150919187 0.015974894090239437 -0.037947851281101716 0.04530652529426273 4.718141480461425 -0.040967963829334784 12.424252138848567 -8.244749368767433 6.917539475162821 0.012434289548238794 46.35218799297589 0.040830093464694336 -4.316416905952318 -14.752374934530073 -3.879591327470442 -0.01610268687778909 -0.008831692052977855 0.006269651935796794 -0.012641656769540254 -10.785997231578634 0.033647657009486465 
